<svg width="18" height="18" viewBox="0 0 18 18" fill="none" xmlns="http://www.w3.org/2000/svg">
<path d="M15.2061 1.25684C15.5966 0.866312 16.2306 0.866312 16.6211 1.25684L16.7432 1.37891C17.1337 1.76943 17.1337 2.40342 16.7432 2.79395L10.5371 9L16.7432 15.2061C17.1337 15.5966 17.1337 16.2306 16.7432 16.6211L16.6211 16.7432C16.2306 17.1337 15.5966 17.1337 15.2061 16.7432L9 10.5371L2.79395 16.7432C2.40342 17.1337 1.76943 17.1337 1.37891 16.7432L1.25684 16.6211C0.866312 16.2306 0.866312 15.5966 1.25684 15.2061L7.46289 9L1.25684 2.79395C0.866312 2.40342 0.866312 1.76943 1.25684 1.37891L1.37891 1.25684C1.76943 0.866312 2.40342 0.866312 2.79395 1.25684L9 7.46289L15.2061 1.25684Z" fill="white"/>
</svg>
